Coordinates
nRows=17
nColumns=24

# SIMM Motion File Header:
name Coordinates
datacolumns 24
datarows 17
otherdata 1
range 0.82533000000000001000 0.84133000000000002000
endheader
time	pelvis_tx	pelvis_ty	pelvis_tz	pelvis_tilt	pelvis_list	pelvis_rotation	hip_flexion_r	hip_adduction_r	hip_rotation_r	knee_angle_r	ankle_angle_r	subtalar_angle_r	mtp_angle_r	hip_flexion_l	hip_adduction_l	hip_rotation_l	knee_angle_l	ankle_angle_l	subtalar_angle_l	mtp_angle_l	lumbar_extension	lumbar_bending	lumbar_rotation
      0.82533000000000001000	      1.03238695237229900000	      0.78540084283794742000	     -0.27822415494874897000	     -1.91880703095661610000	      1.22851914559528440000	      8.75816464116330630000	     25.06209688260110000000	     -6.82119223525894560000	     -0.81527744356929432000	     -2.94216399282472410000	     -6.44903973769525680000	     -0.00000000000003445813	      0.00000000000010239855	    -11.37248923456208500000	      3.15151551503599060000	     -4.77926292825818600000	     -3.57613193820743460000	     12.96773021523783800000	      0.00000000000004475138	     -0.00000000000040446563	     -0.87793669074505920000	      0.09193181782455379900	     -7.18232186602281160000
      0.82633000000000001000	      1.03308459401301310000	      0.78531273084343978000	     -0.27810381355204422000	     -1.91359820192392440000	      1.22472790677119710000	      8.77267334219394710000	     25.04716684503252800000	     -6.80591204438760220000	     -0.85293910994002120000	     -2.98380203155949090000	     -6.48185267224855190000	     -0.00000000000003450893	      0.00000000000010259986	    -11.41965513727061000000	      3.12274261869747560000	     -4.80453099656122970000	     -3.59603185203603020000	     12.99218861490508700000	      0.00000000000004462666	     -0.00000000000040536313	     -0.87434562199620436000	      0.09660308522293302400	     -7.18075555970612010000
      0.82733000000000001000	      1.03378375174093050000	      0.78522443151798582000	     -0.27798172507332886000	     -1.90858289452349170000	      1.22078100880210720000	      8.78655301418510070000	     25.03267706891446000000	     -6.78992547045570040000	     -0.89163643639462231000	     -3.02712716696032570000	     -6.51136821517341420000	     -0.00000000000003455097	      0.00000000000010279745	    -11.46698399496243900000	      3.09378983549570030000	     -4.83023002646121210000	     -3.61550462123145340000	     13.01736608243514000000	      0.00000000000004448662	     -0.00000000000040625523	     -0.87045839189888874000	      0.10142307005042572000	     -7.17883212357132990000
      0.82833000000000001000	      1.03448442555605100000	      0.78513594486158544000	     -0.27785788951260271000	     -1.90376110875531720000	      1.21667845168801490000	      8.79980365713676700000	     25.01862755424689400000	     -6.77323251346324360000	     -0.93136942293309433000	     -3.07213939902722190000	     -6.53758636646985460000	     -0.00000000000003458427	      0.00000000000010299132	    -11.51447580763756800000	      3.06465716543066560000	     -4.85636001795813140000	     -3.63455024579370620000	     13.04326261782799500000	      0.00000000000004433128	     -0.00000000000040714194	     -0.86627500045311334000	      0.10639177230703140000	     -7.17655155761844200000
      0.82933000000000001000	      1.03518711134680850000	      0.78504637138627809000	     -0.27773125898874951000	     -1.89997041262190260000	      1.21234011279258350000	      8.81192058979548950000	     25.00633302613938700000	     -6.75556020081789650000	     -0.97229198107883830000	     -3.11986113619435380000	     -6.56172837702369450000	     -0.00000000000003462867	      0.00000000000010319560	    -11.56130476100353900000	      3.03543643532137430000	     -4.88327376176810900000	     -3.65316883763866330000	     13.07065649154656800000	      0.00000000000004415171	     -0.00000000000040791209	     -0.86082272487365374000	      0.11147676665772532000	     -7.17356245654517540000
      0.83033000000000001000	      1.03589046779611160000	      0.78495643563800155000	     -0.27760369681052061000	     -1.89652341303340770000	      1.20792317997003920000	      8.82365961902322840000	     24.99462349355190200000	     -6.73756143628825390000	     -1.01361106309367300000	     -3.16848604172823120000	     -6.58517834066333490000	     -0.00000000000003467677	      0.00000000000010340336	    -11.60791276126645900000	      3.00618635186399750000	     -4.91044875634910750000	     -3.67164508524452190000	     13.09854947804038100000	      0.00000000000004396406	     -0.00000000000040864340	     -0.85494748791629904000	      0.11660052503978201000	     -7.17033717709844880000
      0.83133000000000001000	      1.03659455776227550000	      0.78486590982130844000	     -0.27747503844988297000	     -1.89368595186457740000	      1.20336794919784620000	      8.83493492178836350000	     24.98381675203197700000	     -6.71918249239110570000	     -1.05544406015043580000	     -3.21792100860224470000	     -6.61013563192129800000	     -0.00000000000003472539	      0.00000000000010358924	    -11.65401876907997700000	      2.97689588505002690000	     -4.93797148342959160000	     -3.68994945191816770000	     13.12661571685048900000	      0.00000000000004377908	     -0.00000000000040937472	     -0.84833462867852927000	      0.12179369702084063000	     -7.16682542207703490000
      0.83233000000000001000	      1.03730084827902220000	      0.78477361379936528000	     -0.27734309154201897000	     -1.89267710595473850000	      1.19839782457670660000	      8.84481904516568380000	     24.97571838371474200000	     -6.69966301039144430000	     -1.09881880233298100000	     -3.26978615949666240000	     -6.63961490603422800000	     -0.00000000000003477558	      0.00000000000010370947	    -11.69861879954530800000	      2.94748426816627560000	     -4.96653740800853160000	     -3.70773817579517620000	     13.15520171260948400000	      0.00000000000004360212	     -0.00000000000041010608	     -0.83950890259951694000	      0.12719510979890483000	     -7.16245424033155940000
      0.83333000000000002000	      1.03800713879576880000	      0.78468131777742212000	     -0.27721114463415503000	     -1.89166826004489970000	      1.19342769995556730000	      8.85470316854300600000	     24.96762001539750400000	     -6.68014352839178290000	     -1.14219354451552620000	     -3.32165131039108050000	     -6.66909418014715700000	     -0.00000000000003482577	      0.00000000000010382971	    -11.74321883001063700000	      2.91807265128252440000	     -4.99510333258747160000	     -3.72552689967218460000	     13.18378770836847900000	      0.00000000000004342516	     -0.00000000000041083745	     -0.83068317652050450000	      0.13259652257696902000	     -7.15808305858608400000
      0.83433000000000002000	      1.03871566200116990000	      0.78458798767204974000	     -0.27707610839279134000	     -1.89216281173749670000	      1.18775183394176740000	      8.86328349786323950000	     24.96155174551656900000	     -6.65927490986372560000	     -1.18761379092739720000	     -3.37452653318893780000	     -6.71104188155653690000	     -0.00000000000003487991	      0.00000000000010391831	    -11.78675556342240700000	      2.88817108260203930000	     -5.02478472808415330000	     -3.74233506677029570000	     13.21085252398984300000	      0.00000000000004325894	     -0.00000000000041159528	     -0.81997179806732312000	      0.13862749781540343000	     -7.15299220860350890000
      0.83533000000000002000	      1.03942492943612290000	      0.78449431287220084000	     -0.27694004237359438000	     -1.89315849596423780000	      1.18184072079708160000	      8.87142922916444480000	     24.95616017511439800000	     -6.63795657915953720000	     -1.23371587208237510000	     -3.42773844662127440000	     -6.75714572539805670000	     -0.00000000000003493537	      0.00000000000010399638	    -11.82993786448298900000	      2.85810619665597660000	     -5.05483794722008110000	     -3.75881638160877520000	     13.23741027956533100000	      0.00000000000004309629	     -0.00000000000041236194	     -0.80863186882275384000	      0.14486832720729403000	     -7.14766146920856650000
      0.83633000000000002000	      1.04013484411167330000	      0.78440061307674314000	     -0.27680315215012075000	     -1.89442475897569020000	      1.17566969733278710000	      8.87922822980859830000	     24.95111107170500000000	     -6.61620258401920670000	     -1.28045161536556230000	     -3.48096497702281840000	     -6.80799322620922180000	     -0.00000000000003499848	      0.00000000000010408611	    -11.87302132336851600000	      2.82781385221007090000	     -5.08519526753788040000	     -3.77488227467147430000	     13.26326855619408500000	      0.00000000000004295076	     -0.00000000000041316129	     -0.79692806785628501000	      0.15139134844448887000	     -7.14216368885319050000
      0.83733000000000002000	      1.04084670050901650000	      0.78430683829445880000	     -0.27666378931381691000	     -1.89650275834127320000	      1.16871894290967030000	      8.88598703848160380000	     24.94708936927392500000	     -6.59314159557045440000	     -1.32908834503337060000	     -3.53423535833198480000	     -6.87307169792926850000	     -0.00000000000003508453	      0.00000000000010421082	    -11.91580825572887500000	      2.79683913226463860000	     -5.11646489140128930000	     -3.78970190240683770000	     13.28702839598263500000	      0.00000000000004285657	     -0.00000000000041405871	     -0.78413265172412205000	      0.15876094521759299000	     -7.13616478561651490000
      0.83833000000000002000	      1.04155981633305530000	      0.78421316011385711000	     -0.27652282732815031000	     -1.89910211906317610000	      1.16123317423803480000	      8.89206258400013110000	     24.94375262545428400000	     -6.56922330125975670000	     -1.37878084437564970000	     -3.58745006535599260000	     -6.94743843610908220000	     -0.00000000000003517561	      0.00000000000010434201	    -11.95844392792378300000	      2.76540649729171670000	     -5.14823709183470330000	     -3.80357024219908180000	     13.30971121837987800000	      0.00000000000004278968	     -0.00000000000041501365	     -0.77063724324548744000	      0.16672585505080356000	     -7.12986559691437720000
      0.83933000000000002000	      1.04227419158378940000	      0.78411957853493808000	     -0.27638026619312095000	     -1.90222284114139930000	      1.15321239131788040000	      8.89745486636418010000	     24.94110084024607200000	     -6.54444770108711360000	     -1.42952911339240060000	     -3.64060909809484290000	     -7.03109344074866800000	     -0.00000000000003527171	      0.00000000000010447969	    -12.00092833995324200000	      2.73351594729130420000	     -5.18051186883812240000	     -3.81648729404820570000	     13.33131702338581300000	      0.00000000000004275008	     -0.00000000000041602612	     -0.75644184242038071000	      0.17528607794412104000	     -7.12326612274677730000
      0.84033000000000002000	      1.04298856683452360000	      0.78402599695601904000	     -0.27623770505809159000	     -1.90534356321962270000	      1.14519160839772600000	      8.90284714872822920000	     24.93844905503786400000	     -6.51967210091447050000	     -1.48027738240915150000	     -3.69376813083369270000	     -7.11474844538825480000	     -0.00000000000003536782	      0.00000000000010461737	    -12.04341275198270200000	      2.70162539729089210000	     -5.21278664584154150000	     -3.82940434589732930000	     13.35292282839174800000	      0.00000000000004271047	     -0.00000000000041703858	     -0.74224644159527364000	      0.18384630083743864000	     -7.11666664857917650000
      0.84133000000000002000	      1.04370588252323860000	      0.78393278183828963000	     -0.27609172210021482000	     -1.90979604782608760000	      1.13605774211462300000	      8.90687800183291500000	     24.93753459787430400000	     -6.49317151507826740000	     -1.53285277655827200000	     -3.74707278937820080000	     -7.21302252245936510000	     -0.00000000000003545345	      0.00000000000010476171	    -12.08540716276057700000	      2.66882177799661060000	     -5.24565842990682190000	     -3.84006065862163350000	     13.37306547444692000000	      0.00000000000004266314	     -0.00000000000041799361	     -0.72630526002276719000	      0.19362331346281136000	     -7.10966648796942650000
